<svg xmlns="http://www.w3.org/2000/svg" version="1.1" xmlns:xlink="http://www.w3.org/1999/xlink" xmlns:svgjs="http://svgjs.dev/svgjs" width="1000" height="750" viewBox="0 0 1000 750"><rect width="1000" height="750" fill="#fce44d"></rect><g transform="matrix(0.834,0,0,0.834,82.49454545454546,160.06048267653568)"><svg viewBox="0 0 396 204" data-background-color="#fce44d" preserveAspectRatio="xMidYMid meet" height="515" width="1000" xmlns="http://www.w3.org/2000/svg" xmlns:xlink="http://www.w3.org/1999/xlink"><g id="tight-bounds" transform="matrix(1,0,0,1,0.2400000000000091,0.08763831805248401)"><svg viewBox="0 0 395.52 203.82472336389503" height="203.82472336389503" width="395.52"><g><svg viewBox="0 0 395.52 203.82472336389503" height="203.82472336389503" width="395.52"><g><svg viewBox="0 0 395.52 203.82472336389503" height="203.82472336389503" width="395.52"><g><svg viewBox="0 0 395.52 203.82472336389503" height="203.82472336389503" width="395.52"><g><svg viewBox="0 0 395.52 203.82472336389503" height="203.82472336389503" width="395.52"><g transform="matrix(1,0,0,1,0,0)"><svg width="395.52" viewBox="1.83 -38.79 77.22 39.79" height="203.82472336389503" data-palette-color="#374151"><path d="M13.79-0.29L13.79-0.29Q12.55 0.49 10.96 0.49 9.38 0.49 8.13-0.29L8.13-0.29Q6.88 0.49 5.82 0.49 4.76 0.49 4.08 0.31 3.39 0.12 2.88-0.2L2.88-0.2Q1.83-0.83 1.83-1.78L1.83-1.78Q1.83-2.27 2.1-2.64L2.1-2.64Q2.64-2.22 3.47-2.22L3.47-2.22Q5.64-2.22 6.47-4.08L6.47-4.08 6.47-16.02Q6.47-17.14 6.01-17.68L6.01-17.68Q5.27-18.58 3.49-19.46L3.49-19.46Q5.15-20.21 5.64-20.8L5.64-20.8Q6.47-21.75 6.47-22.95L6.47-22.95 6.47-33.25Q5.64-35.13 3.47-35.13L3.47-35.13Q2.64-35.13 2.1-34.72L2.1-34.72Q1.83-35.08 1.83-35.56 1.83-36.04 2.11-36.45 2.39-36.87 2.88-37.16L2.88-37.16Q4-37.84 5.46-37.84 6.91-37.84 8.13-37.04L8.13-37.04Q9.4-37.84 10.96-37.84 12.52-37.84 13.79-37.04L13.79-37.04Q16.55-38.09 19.91-38.09 23.27-38.09 25.54-37.48 27.81-36.87 29.44-35.74L29.44-35.74Q32.74-33.47 33.54-29.42L33.54-29.42Q33.86-27.61 35.86-26.68L35.86-26.68Q33.96-25.61 33.37-23.27L33.37-23.27Q32.18-18.43 27.39-17.24L27.39-17.24Q29.86-16.58 31.42-14.53L31.42-14.53Q33.03-12.4 33.03-9.52L33.03-9.52 33.03-7.08Q33.03-3.56 35.3-2.54L35.3-2.54Q35.99-2.22 36.79-2.22 37.6-2.22 38.13-2.64L38.13-2.64Q38.4-2.27 38.4-1.79 38.4-1.32 38.16-0.9 37.92-0.49 37.5-0.2L37.5-0.2Q36.62 0.49 35.45 0.49 34.28 0.49 33.15-0.15L33.15-0.15Q31.1 0.98 29.32 0.07L29.32 0.07Q28.64 0.49 27.88 0.49 27.12 0.49 26.43 0.15 25.73-0.2 25.2-0.98L25.2-0.98Q24.05-2.66 24.05-6.15L24.05-6.15 24.05-7.96Q24.05-13.6 20.83-15.28L20.83-15.28Q19.75-15.84 18.31-15.84L18.31-15.84 15.45-15.84 15.45-3.96Q16.11-2.22 17.97-2.22L17.97-2.22Q18.8-2.22 19.34-2.64L19.34-2.64Q19.6-2.27 19.6-1.56 19.6-0.85 18.84-0.18 18.07 0.49 16.53 0.49 14.99 0.49 13.79-0.29ZM20.14-34.84L20.14-34.84Q15.45-34.84 15.45-31.2L15.45-31.2 15.45-21.22Q15.45-19.95 16.46-19.51L16.46-19.51Q17.41-19.09 19.27-19.09 21.14-19.09 21.89-19.3 22.63-19.51 23.17-20.02L23.17-20.02Q24.27-21.07 24.27-23.54L24.27-23.54 24.27-30.66Q24.27-33.72 21.73-34.57L21.73-34.57Q20.97-34.84 20.14-34.84ZM25.9-33.28L25.9-33.28Q26.66-31.57 26.66-27.81L26.66-27.81Q26.66-21.34 26.05-20.07L26.05-20.07Q27.39-20.34 27.98-23.66L27.98-23.66 28.17-24.66Q28.44-26.25 29.74-26.68L29.74-26.68Q28.78-27 28.52-27.44L28.52-27.44Q28.22-27.95 27.99-29.19 27.76-30.42 27.51-31.18 27.27-31.93 27-32.37L27-32.37Q26.54-33.15 25.9-33.28ZM8.81-9.64L8.81-6.47Q10.03-6.93 10.16-9.67L10.16-9.67Q10.3-12.4 10.3-17.24 10.3-22.07 10.29-23.67 10.28-25.27 10.25-26.25L10.25-26.25Q10.18-29.13 9.7-29.72 9.23-30.32 8.81-30.52L8.81-30.52Q8.81-22.02 8.52-20.85L8.52-20.85Q8.18-19.87 6.86-19.46L6.86-19.46Q8.33-18.95 8.52-18.21L8.52-18.21Q8.81-17.04 8.81-9.64L8.81-9.64ZM25.66-13.16L25.66-13.16Q26.64-12.06 26.64-10.47L26.64-10.47 26.64-7.25Q26.64-3.2 28.25-2.93L28.25-2.93Q28.69-2.86 29.1-2.95L29.1-2.95Q28.22-4.32 28.22-5.83L28.22-5.83 28.22-9.25Q28.22-11.18 27.69-11.99L27.69-11.99Q26.76-13.35 25.66-13.16ZM58.71-0.95L58.71-0.95Q56.76 1 55 1L55 1Q53.88 1 53.49 0.17L53.49 0.17Q54.05-0.51 54.05-1.88L54.05-1.88 54.05-2.25Q54.05-2.39 54.02-2.51L54.02-2.51Q52.8-3.61 52.8-5.11 52.8-6.62 54.22-8.18L54.22-8.18Q53.8-9.01 53.8-9.95 53.8-10.89 54.08-11.71 54.37-12.52 54.85-13.13L54.85-13.13Q55.88-14.48 56.87-14.48 57.86-14.48 58.27-13.7L58.27-13.7Q57.39-12.77 57.39-10.79 57.39-8.81 57.97-7.35 58.54-5.88 59.59-4.83L59.59-4.83Q61.84-2.54 65.33-2.54L65.33-2.54Q67.67-2.54 69.31-3.88L69.31-3.88Q71.06-5.32 71.06-7.81L71.06-7.81Q71.06-9.57 70.23-10.67L70.23-10.67Q68.94-12.38 66.18-14.28L66.18-14.28Q64.06-15.77 62.79-15.77L62.79-15.77Q61.49-15.77 59.93-14.72L59.93-14.72Q60.35-15.97 60.35-17.04L60.35-17.04Q60.35-17.29 59.88-17.68L59.88-17.68 58.98-18.48Q54.71-22.41 53.93-25.78L53.93-25.78Q53.66-26.95 53.66-28.72 53.66-30.49 54.52-32.31 55.39-34.13 56.9-35.4L56.9-35.4Q60.05-38.09 64.91-38.09L64.91-38.09Q67.87-38.09 70.33-37.13L70.33-37.13Q71.38-36.72 72.72-36.72L72.72-36.72Q73.29-36.72 73.74-36.78 74.19-36.84 74.53-37.28L74.53-37.28Q74.85-37.74 74.85-38.11 74.85-38.48 74.75-38.72L74.75-38.72Q74.92-38.79 75.23-38.79 75.53-38.79 75.9-38.59 76.26-38.38 76.56-38.01L76.56-38.01Q77.22-37.18 77.22-36.15 77.22-35.11 76.63-34.57L76.63-34.57Q77.46-33.84 77.46-32.3L77.46-32.3Q77.46-30.79 76.44-29.76L76.44-29.76Q76.63-29.1 76.63-28.58 76.63-28.05 76.45-27.58 76.26-27.1 75.95-26.76L75.95-26.76Q75.24-26 74.6-26L74.6-26Q73.6-26 72.92-26.34L72.92-26.34Q73.33-27.32 73.33-28.44 73.33-29.57 72.83-30.75 72.33-31.93 71.43-32.81L71.43-32.81Q69.53-34.62 66.45-34.62L66.45-34.62Q64.5-34.62 63.25-33.42L63.25-33.42Q62.08-32.3 62.08-30.71L62.08-30.71Q62.08-29.52 62.67-28.71L62.67-28.71Q63.69-27.32 65.91-25.83L65.91-25.83 67.08-25.05Q68.06-24.44 68.4-24.44 68.75-24.44 69.09-24.51 69.43-24.58 69.84-24.71L69.84-24.71Q70.72-25 71.55-25.54L71.55-25.54 71.24-24.17Q71.09-23.49 71.09-23.17L71.09-23.17Q71.09-22.66 71.6-22.24L71.6-22.24Q76.17-18.29 77.7-15.63L77.7-15.63Q79.05-13.31 79.05-10.62 79.05-7.93 78.17-6.01 77.29-4.08 75.61-2.59L75.61-2.59Q71.89 0.73 65.96 0.73L65.96 0.73Q61.79 0.73 58.71-0.95ZM57.05-30.52L57.05-30.52Q56.12-30.13 56.12-28.49L56.12-28.49Q56.12-25.15 60.59-21.14L60.59-21.14 62.06-19.82Q62.81-19.14 62.73-18.77 62.64-18.41 62.58-18.19 62.52-17.97 62.45-17.77 62.37-17.58 62.35-17.48L62.35-17.48Q63.2-17.99 63.74-17.99L63.74-17.99Q64.81-17.99 65.77-17.41L65.77-17.41Q70.48-14.48 72.16-12.18L72.16-12.18Q73.38-10.5 73.43-7.98L73.43-7.98Q73.43-7.08 73.31-6.47L73.31-6.47Q74.6-7.3 74.6-9.11L74.6-9.11Q74.6-10.86 74.13-11.82 73.65-12.77 73.02-13.51 72.38-14.26 71.37-15.14 70.36-16.02 68.87-17.04L68.87-17.04 65.4-19.41Q61.13-22.22 58.91-25.34L58.91-25.34Q56.95-28.1 57.05-30.52Z" opacity="1" transform="matrix(1,0,0,1,0,0)" fill="#374151" class="undefined-text-0" data-fill-palette-color="primary" id="text-0"></path></svg></g></svg></g></svg></g></svg></g></svg></g><defs></defs></svg><rect width="395.52" height="203.82472336389503" fill="none" stroke="none" visibility="hidden"></rect></g></svg></g></svg>